<svg width="24" height="24" viewBox="0 0 24 24" fill="none" xmlns="http://www.w3.org/2000/svg">
<path fill-rule="evenodd" clip-rule="evenodd" d="M8.57935 7.70921C9.02377 7.61157 9.54683 7.58159 10.1391 7.58159H13.8601C14.4523 7.58159 14.9754 7.61157 15.4199 7.70921C15.8722 7.80857 16.2864 7.98728 16.6146 8.31547C16.9428 8.64365 17.1215 9.05786 17.2208 9.51018C17.3185 9.95459 17.3484 10.4776 17.3484 11.07V21.3025C17.3484 21.6878 17.0361 22.0002 16.6508 22.0002H7.34844C6.96313 22.0002 6.65076 21.6878 6.65076 21.3025V11.07C6.65076 10.4776 6.68075 9.95459 6.77838 9.51018C6.87775 9.05786 7.05646 8.64365 7.38464 8.31547C7.71283 7.98728 8.12703 7.80857 8.57935 7.70921ZM8.14123 9.80957C8.07636 10.1049 8.04611 10.5078 8.04611 11.07V20.6049H15.9531V11.07C15.9531 10.5078 15.9229 10.1049 15.8579 9.80957C15.7949 9.52218 15.7088 9.38301 15.6279 9.30213C15.547 9.22124 15.4079 9.13519 15.1204 9.07205C14.8252 9.00719 14.4222 8.97694 13.8601 8.97694H10.1391C9.57702 8.97694 9.17404 9.00719 8.87875 9.07205C8.59136 9.13519 8.45219 9.22124 8.3713 9.30213C8.29042 9.38301 8.20436 9.52218 8.14123 9.80957Z" fill="#333333"/>
<path fill-rule="evenodd" clip-rule="evenodd" d="M10.3717 12.0002C10.3717 11.6149 10.6841 11.3026 11.0694 11.3026H12.9298C13.3151 11.3026 13.6275 11.6149 13.6275 12.0002C13.6275 12.3855 13.3151 12.6979 12.9298 12.6979H11.0694C10.6841 12.6979 10.3717 12.3855 10.3717 12.0002ZM10.3717 14.7909C10.3717 14.4056 10.6841 14.0932 11.0694 14.0932H12.9298C13.3151 14.0932 13.6275 14.4056 13.6275 14.7909C13.6275 15.1762 13.3151 15.4886 12.9298 15.4886H11.0694C10.6841 15.4886 10.3717 15.1762 10.3717 14.7909ZM10.3717 17.5816C10.3717 17.1963 10.6841 16.8839 11.0694 16.8839H12.9298C13.3151 16.8839 13.6275 17.1963 13.6275 17.5816C13.6275 17.9669 13.3151 18.2793 12.9298 18.2793H11.0694C10.6841 18.2793 10.3717 17.9669 10.3717 17.5816Z" fill="#333333"/>
<path fill-rule="evenodd" clip-rule="evenodd" d="M13.7659 2.04167C14.0285 2.10177 14.3094 2.22487 14.5934 2.36986L18.6629 4.4477C19.137 4.6898 19.5399 4.89546 19.8555 5.10059C20.1922 5.31929 20.4786 5.56715 20.6907 5.91771C20.9023 6.2674 20.9904 6.63722 21.031 7.03887C21.0694 7.41726 21.0694 7.87565 21.0694 8.4181V21.3025C21.0694 21.6879 20.757 22.0002 20.3717 22.0002C19.9864 22.0002 19.674 21.6879 19.674 21.3025V8.45195C19.674 7.86662 19.6732 7.47926 19.6429 7.17942C19.614 6.89499 19.5632 6.74961 19.497 6.64019C19.4312 6.53164 19.3285 6.4222 19.0953 6.27063C18.848 6.10991 18.5108 5.93678 17.9976 5.67473L13.9589 3.6126C13.8289 3.54626 13.7243 3.49833 13.6411 3.46448C13.6326 3.56012 13.6275 3.68342 13.6275 3.84087V8.00345C13.6275 8.38876 13.3151 8.70113 12.9298 8.70113C12.5445 8.70113 12.2322 8.38876 12.2322 8.00345V3.84087C12.2322 3.52521 12.2484 3.2221 12.309 2.96289C12.368 2.71032 12.4967 2.37979 12.819 2.17118C13.1473 1.95873 13.5056 1.98212 13.7659 2.04167ZM13.4192 3.39537C13.4172 3.3953 13.4161 3.39514 13.4161 3.39514L13.4192 3.39537Z" fill="#333333"/>
<path fill-rule="evenodd" clip-rule="evenodd" d="M4.33292 12.7056C4.32831 12.7593 4.32518 12.832 4.32518 12.9305V21.3026C4.32518 21.6879 4.01282 22.0002 3.62751 22.0002C3.2422 22.0002 2.92983 21.6879 2.92983 21.3026V12.9305C2.92983 12.7229 2.93974 12.5086 2.9832 12.3107C3.0284 12.105 3.11886 11.8752 3.31069 11.6834C3.50252 11.4916 3.73226 11.4011 3.93802 11.3559C4.13586 11.3124 4.35024 11.3026 4.55774 11.3026H7.34844C7.73375 11.3026 8.04611 11.6149 8.04611 12.0002C8.04611 12.3855 7.73375 12.6979 7.34844 12.6979H4.55774C4.4594 12.6979 4.38659 12.701 4.33292 12.7056Z" fill="#333333"/>
<path fill-rule="evenodd" clip-rule="evenodd" d="M1.9996 21.3025C1.9996 20.9172 2.31196 20.6049 2.69728 20.6049H21.3019C21.6872 20.6049 21.9996 20.9172 21.9996 21.3025C21.9996 21.6879 21.6872 22.0002 21.3019 22.0002H2.69728C2.31196 22.0002 1.9996 21.6879 1.9996 21.3025Z" fill="#333333"/>
</svg>
