<svg width="24" height="24" viewBox="0 0 24 24" fill="none" xmlns="http://www.w3.org/2000/svg">
<path fill-rule="evenodd" clip-rule="evenodd" d="M8.57898 7.70916C9.0234 7.61152 9.54646 7.58154 10.1388 7.58154H13.8597C14.452 7.58154 14.975 7.61152 15.4195 7.70916C15.8718 7.80852 16.286 7.98724 16.6142 8.31542C16.9424 8.64361 17.1211 9.05781 17.2204 9.51013C17.3181 9.95455 17.3481 10.4776 17.3481 11.0699V21.3025C17.3481 21.6878 17.0357 22.0002 16.6504 22.0002H7.34807C6.96275 22.0002 6.65039 21.6878 6.65039 21.3025V11.0699C6.65039 10.4776 6.68037 9.95455 6.77801 9.51013C6.87738 9.05781 7.05608 8.64361 7.38427 8.31542C7.71246 7.98724 8.12666 7.80852 8.57898 7.70916ZM8.14086 9.80952C8.07599 10.1048 8.04574 10.5078 8.04574 11.0699V20.6048H15.9527V11.0699C15.9527 10.5078 15.9225 10.1048 15.8576 9.80952C15.7945 9.52214 15.7084 9.38297 15.6275 9.30208C15.5467 9.2212 15.4075 9.13514 15.1201 9.07201C14.8248 9.00714 14.4218 8.97689 13.8597 8.97689H10.1388C9.57665 8.97689 9.17366 9.00714 8.87837 9.07201C8.59099 9.13514 8.45181 9.2212 8.37093 9.30208C8.29005 9.38297 8.20399 9.52214 8.14086 9.80952Z" fill="white"/>
<path fill-rule="evenodd" clip-rule="evenodd" d="M10.3711 12.0004C10.3711 11.6151 10.6835 11.3027 11.0688 11.3027H12.9292C13.3145 11.3027 13.6269 11.6151 13.6269 12.0004C13.6269 12.3857 13.3145 12.6981 12.9292 12.6981H11.0688C10.6835 12.6981 10.3711 12.3857 10.3711 12.0004ZM10.3711 14.7911C10.3711 14.4058 10.6835 14.0934 11.0688 14.0934H12.9292C13.3145 14.0934 13.6269 14.4058 13.6269 14.7911C13.6269 15.1764 13.3145 15.4888 12.9292 15.4888H11.0688C10.6835 15.4888 10.3711 15.1764 10.3711 14.7911ZM10.3711 17.5818C10.3711 17.1965 10.6835 16.8841 11.0688 16.8841H12.9292C13.3145 16.8841 13.6269 17.1965 13.6269 17.5818C13.6269 17.9671 13.3145 18.2795 12.9292 18.2795H11.0688C10.6835 18.2795 10.3711 17.9671 10.3711 17.5818Z" fill="white"/>
<path fill-rule="evenodd" clip-rule="evenodd" d="M13.7662 2.04183C14.0288 2.10192 14.3096 2.22503 14.5936 2.37001L18.6631 4.44786C19.1373 4.68995 19.5401 4.89561 19.8558 5.10074C20.1924 5.31945 20.4788 5.56731 20.6909 5.91786C20.9026 6.26755 20.9907 6.63737 21.0313 7.03902C21.0696 7.41741 21.0696 7.8758 21.0696 8.41826V21.3027C21.0696 21.688 20.7573 22.0004 20.372 22.0004C19.9867 22.0004 19.6743 21.688 19.6743 21.3027V8.45211C19.6743 7.86678 19.6734 7.47941 19.6431 7.17958C19.6143 6.89514 19.5635 6.74976 19.4973 6.64034C19.4315 6.53179 19.3288 6.42235 19.0956 6.27079C18.8482 6.11006 18.511 5.93693 17.9978 5.67488L13.9591 3.61275C13.8292 3.54641 13.7246 3.49848 13.6414 3.46463C13.6329 3.56027 13.6278 3.68358 13.6278 3.84103V8.0036C13.6278 8.38892 13.3154 8.70128 12.9301 8.70128C12.5448 8.70128 12.2324 8.38892 12.2324 8.0036V3.84103C12.2324 3.52536 12.2487 3.22226 12.3093 2.96305C12.3682 2.71047 12.497 2.37994 12.8193 2.17133C13.1476 1.95888 13.5058 1.98227 13.7662 2.04183ZM13.4195 3.39552C13.4174 3.39546 13.4163 3.3953 13.4163 3.3953L13.4195 3.39552Z" fill="white"/>
<path fill-rule="evenodd" clip-rule="evenodd" d="M4.33278 12.7058C4.32816 12.7595 4.32504 12.8322 4.32504 12.9306V21.3027C4.32504 21.688 4.01267 22.0004 3.62736 22.0004C3.24205 22.0004 2.92969 21.688 2.92969 21.3027V12.9306C2.92969 12.7231 2.93959 12.5088 2.98305 12.3109C3.02825 12.1052 3.11871 11.8754 3.31054 11.6836C3.50238 11.4918 3.73212 11.4012 3.93787 11.356C4.13572 11.3126 4.3501 11.3027 4.55759 11.3027H7.34829C7.7336 11.3027 8.04597 11.6151 8.04597 12.0004C8.04597 12.3857 7.7336 12.6981 7.34829 12.6981H4.55759C4.45925 12.6981 4.38644 12.7012 4.33278 12.7058Z" fill="white"/>
<path fill-rule="evenodd" clip-rule="evenodd" d="M2 21.3027C2 20.9174 2.31236 20.605 2.69767 20.605H21.3023C21.6876 20.605 22 20.9174 22 21.3027C22 21.688 21.6876 22.0003 21.3023 22.0003H2.69767C2.31236 22.0003 2 21.688 2 21.3027Z" fill="white"/>
</svg>
