<svg width="24" height="24" viewBox="0 0 24 24" fill="none" xmlns="http://www.w3.org/2000/svg">
<path d="M9.03085 14.1877H4.34335C3.05101 14.1877 1.9996 15.2391 1.9996 16.5315V19.6565C1.9996 20.9488 3.05101 22.0002 4.34335 22.0002H9.03085C10.3232 22.0002 11.3746 20.9488 11.3746 19.6565V16.5315C11.3746 15.2391 10.3232 14.1877 9.03085 14.1877ZM9.8121 19.6565C9.8121 20.0872 9.46163 20.4377 9.03085 20.4377H4.34335C3.91257 20.4377 3.5621 20.0872 3.5621 19.6565V16.5315C3.5621 16.1007 3.91257 15.7502 4.34335 15.7502H9.03085C9.46163 15.7502 9.8121 16.1007 9.8121 16.5315V19.6565ZM19.6559 2.00021H14.9684C13.676 2.00021 12.6246 3.05162 12.6246 4.34396V7.46896C12.6246 8.76131 13.676 9.81271 14.9684 9.81271H19.6559C20.9482 9.81271 21.9996 8.76131 21.9996 7.46896V4.34396C21.9996 3.05162 20.9482 2.00021 19.6559 2.00021ZM20.4371 7.46896C20.4371 7.89974 20.0866 8.25021 19.6559 8.25021H14.9684C14.5376 8.25021 14.1871 7.89974 14.1871 7.46896V4.34396C14.1871 3.91318 14.5376 3.56271 14.9684 3.56271H19.6559C20.0866 3.56271 20.4371 3.91318 20.4371 4.34396V7.46896ZM19.6559 11.0627H14.9684C13.676 11.0627 12.6246 12.1141 12.6246 13.4065V19.6565C12.6246 20.9488 13.676 22.0002 14.9684 22.0002H19.6559C20.9482 22.0002 21.9996 20.9488 21.9996 19.6565V13.4065C21.9996 12.1141 20.9482 11.0627 19.6559 11.0627ZM20.4371 19.6565C20.4371 20.0872 20.0866 20.4377 19.6559 20.4377H14.9684C14.5376 20.4377 14.1871 20.0872 14.1871 19.6565V13.4065C14.1871 12.9757 14.5376 12.6252 14.9684 12.6252H19.6559C20.0866 12.6252 20.4371 12.9757 20.4371 13.4065V19.6565ZM9.03085 2.00021H4.34335C3.05101 2.00021 1.9996 3.05162 1.9996 4.34396V10.594C1.9996 11.8863 3.05101 12.9377 4.34335 12.9377H9.03085C10.3232 12.9377 11.3746 11.8863 11.3746 10.594V4.34396C11.3746 3.05162 10.3232 2.00021 9.03085 2.00021ZM9.8121 10.594C9.8121 11.0247 9.46163 11.3752 9.03085 11.3752H4.34335C3.91257 11.3752 3.5621 11.0247 3.5621 10.594V4.34396C3.5621 3.91318 3.91257 3.56271 4.34335 3.56271H9.03085C9.46163 3.56271 9.8121 3.91318 9.8121 4.34396V10.594Z" fill="#333333"/>
</svg>
