<svg width="20" height="20" viewBox="0 0 20 20" fill="none" xmlns="http://www.w3.org/2000/svg">
<path fill-rule="evenodd" clip-rule="evenodd" d="M10.3917 12.9419L12.8917 15.4419C13.1358 15.686 13.5315 15.686 13.7756 15.4419L16.2756 12.9419C16.5197 12.6978 16.5197 12.3022 16.2756 12.0581C16.0315 11.814 15.6358 11.814 15.3917 12.0581L13.9587 13.4911V5C13.9587 4.65483 13.6788 4.375 13.3337 4.375C12.9885 4.375 12.7087 4.65483 12.7087 5V13.4911L11.2756 12.0581C11.0315 11.814 10.6358 11.814 10.3917 12.0581C10.1477 12.3022 10.1477 12.6978 10.3917 12.9419ZM7.10893 4.55806C6.86486 4.31398 6.46912 4.31398 6.22505 4.55806L3.72505 7.05806C3.48097 7.30213 3.48097 7.69787 3.72505 7.94194C3.96912 8.18602 4.36486 8.18602 4.60893 7.94194L6.04199 6.50888V15C6.04199 15.3452 6.32182 15.625 6.66699 15.625C7.01217 15.625 7.29199 15.3452 7.29199 15V6.50888L8.72507 7.94194C8.96916 8.18602 9.36482 8.18602 9.60891 7.94194C9.85299 7.69787 9.85299 7.30213 9.60891 7.05806L7.10893 4.55806Z" fill="#0C0C0C"/>
</svg>
