<svg width="24" height="24" viewBox="0 0 24 24" fill="none" xmlns="http://www.w3.org/2000/svg">
<path fill-rule="evenodd" clip-rule="evenodd" d="M9.42543 10.2538C9.83759 10.2126 10.2051 10.5133 10.2463 10.9255L10.7463 15.9255C10.7876 16.3376 10.4868 16.7052 10.0747 16.7464C9.66253 16.7876 9.29499 16.4869 9.25378 16.0747L8.75378 11.0747C8.71256 10.6626 9.01327 10.295 9.42543 10.2538Z" fill="#333333"/>
<path fill-rule="evenodd" clip-rule="evenodd" d="M14.5747 10.2538C14.9868 10.295 15.2875 10.6626 15.2463 11.0747L14.7463 16.0747C14.7051 16.4869 14.3376 16.7876 13.9254 16.7464C13.5133 16.7052 13.2126 16.3376 13.2538 15.9255L13.7538 10.9255C13.795 10.5133 14.1625 10.2126 14.5747 10.2538Z" fill="#333333"/>
<path fill-rule="evenodd" clip-rule="evenodd" d="M10.1219 1.25002H13.5033C13.7197 1.24988 13.9082 1.24976 14.0862 1.27819C14.7895 1.39049 15.3981 1.82915 15.727 2.46084C15.8103 2.62073 15.8698 2.79961 15.9381 3.00494L16.0498 3.33984C16.0687 3.39653 16.0741 3.41258 16.0787 3.42522C16.2538 3.90933 16.7077 4.23659 17.2224 4.24964C17.2359 4.24998 17.2526 4.25004 17.3126 4.25004H20.3126C20.7269 4.25004 21.0626 4.58582 21.0626 5.00004C21.0626 5.41425 20.7269 5.75004 20.3126 5.75004H3.3125C2.89829 5.75004 2.5625 5.41425 2.5625 5.00004C2.5625 4.58582 2.89829 4.25004 3.3125 4.25004H6.31259C6.37263 4.25004 6.3892 4.24998 6.40274 4.24964C6.91739 4.23659 7.37141 3.90936 7.54653 3.42524C7.55113 3.41251 7.55643 3.39681 7.57542 3.33984L7.68702 3.00496C7.75532 2.79964 7.81483 2.62073 7.89809 2.46084C8.22703 1.82915 8.83563 1.39049 9.53893 1.27819C9.71695 1.24976 9.90547 1.24988 10.1219 1.25002ZM8.82065 4.25004C8.87216 4.14902 8.91781 4.04404 8.95708 3.93548C8.969 3.90251 8.9807 3.86742 8.99572 3.82234L9.09553 3.52292C9.1867 3.24941 9.20769 3.19363 9.22851 3.15364C9.33816 2.94307 9.54103 2.79686 9.77546 2.75942C9.81999 2.75231 9.87953 2.75004 10.1678 2.75004H13.4573C13.7456 2.75004 13.8052 2.75231 13.8497 2.75942C14.0841 2.79686 14.287 2.94307 14.3966 3.15364C14.4174 3.19363 14.4384 3.2494 14.5296 3.52292L14.6293 3.82216L14.6681 3.9355C14.7073 4.04405 14.753 4.14902 14.8046 4.25004H8.82065Z" fill="#333333"/>
<path fill-rule="evenodd" clip-rule="evenodd" d="M5.1142 7.75169C5.52749 7.72414 5.88487 8.03684 5.91243 8.45014L6.37237 15.3492C6.46222 16.6971 6.52625 17.6349 6.66682 18.3405C6.80317 19.025 6.9935 19.3873 7.26692 19.6431C7.54033 19.8988 7.91449 20.0647 8.60649 20.1552C9.31989 20.2485 10.2599 20.25 11.6107 20.25H12.3841C13.7349 20.25 14.6749 20.2485 15.3883 20.1552C16.0803 20.0647 16.4545 19.8988 16.7279 19.6431C17.0013 19.3873 17.1917 19.025 17.328 18.3405C17.4686 17.6349 17.5326 16.6971 17.6225 15.3492L18.0824 8.45014C18.1099 8.03684 18.4673 7.72414 18.8806 7.75169C19.2939 7.77924 19.6066 8.13662 19.5791 8.54992L19.1156 15.5016C19.0301 16.7844 18.9611 17.8205 18.7991 18.6336C18.6307 19.4789 18.3443 20.185 17.7527 20.7384C17.1611 21.2919 16.4375 21.5307 15.5829 21.6425C14.7608 21.75 13.7224 21.75 12.4368 21.75H11.558C10.2724 21.75 9.23397 21.75 8.41193 21.6425C7.55728 21.5307 6.83373 21.2919 6.24214 20.7384C5.65054 20.185 5.36412 19.4789 5.19573 18.6336C5.03375 17.8205 4.96469 16.7844 4.8792 15.5016L4.41575 8.54992C4.38819 8.13662 4.7009 7.77924 5.1142 7.75169Z" fill="#333333"/>
</svg>
