<svg width="21" height="20" viewBox="0 0 21 20" fill="none" xmlns="http://www.w3.org/2000/svg">
<path fill-rule="evenodd" clip-rule="evenodd" d="M8.35485 8.54514C8.69832 8.51081 9.00457 8.76139 9.03891 9.10489L9.45557 13.2716C9.48999 13.615 9.23932 13.9213 8.89591 13.9556C8.55243 13.99 8.24615 13.7394 8.21181 13.3959L7.79514 9.22922C7.76079 8.88581 8.01138 8.57947 8.35485 8.54514Z" fill="white"/>
<path fill-rule="evenodd" clip-rule="evenodd" d="M12.6459 8.54514C12.9893 8.57947 13.2399 8.88581 13.2056 9.22922L12.7889 13.3959C12.7546 13.7394 12.4483 13.99 12.1048 13.9556C11.7614 13.9213 11.5108 13.615 11.5451 13.2716L11.9618 9.10489C11.9961 8.76139 12.3024 8.51081 12.6459 8.54514Z" fill="white"/>
<path fill-rule="evenodd" clip-rule="evenodd" d="M8.9352 1.04201H11.7531C11.9335 1.04189 12.0905 1.04179 12.2389 1.06548C12.825 1.15907 13.3321 1.52462 13.6062 2.05102C13.6756 2.18427 13.7252 2.33333 13.7821 2.50444L13.8751 2.78352C13.8909 2.83077 13.8954 2.84414 13.8992 2.85467C14.0451 3.2581 14.4235 3.53082 14.8524 3.54169C14.8636 3.54197 14.8775 3.54202 14.9275 3.54202H17.4275C17.7727 3.54202 18.0525 3.82184 18.0525 4.16702C18.0525 4.5122 17.7727 4.79203 17.4275 4.79203H3.26074C2.91557 4.79203 2.63574 4.5122 2.63574 4.16702C2.63574 3.82184 2.91557 3.54202 3.26074 3.54202H5.76082C5.81085 3.54202 5.82466 3.54197 5.83594 3.54169C6.26482 3.53082 6.64317 3.25812 6.7891 2.85469C6.79293 2.84408 6.79735 2.831 6.81318 2.78352L6.90618 2.50446C6.96309 2.33336 7.01268 2.18427 7.08207 2.05102C7.35618 1.52462 7.86335 1.15907 8.44943 1.06548C8.59778 1.04179 8.75488 1.04189 8.9352 1.04201ZM7.85087 3.54202C7.89379 3.45784 7.93183 3.37036 7.96456 3.27989C7.97449 3.25242 7.98424 3.22317 7.99676 3.18561L8.07993 2.93609C8.15591 2.70817 8.1734 2.66168 8.19075 2.62836C8.28213 2.45288 8.45118 2.33104 8.64654 2.29984C8.68365 2.29392 8.73327 2.29202 8.97353 2.29202H11.7148C11.955 2.29202 12.0046 2.29392 12.0418 2.29984C12.2371 2.33104 12.4062 2.45288 12.4975 2.62836C12.5149 2.66168 12.5324 2.70816 12.6084 2.93609L12.6915 3.18546L12.7238 3.27991C12.7565 3.37037 12.7945 3.45784 12.8375 3.54202H7.85087Z" fill="white"/>
<path fill-rule="evenodd" clip-rule="evenodd" d="M4.76216 6.4599C5.10657 6.43695 5.40439 6.69753 5.42735 7.04195L5.81064 12.7912C5.88551 13.9144 5.93887 14.6959 6.05601 15.2839C6.16964 15.8544 6.32824 16.1563 6.55609 16.3694C6.78394 16.5825 7.09574 16.7208 7.6724 16.7962C8.2669 16.8739 9.05026 16.8752 10.1759 16.8752H10.8204C11.9461 16.8752 12.7294 16.8739 13.3239 16.7962C13.9006 16.7208 14.2124 16.5825 14.4403 16.3694C14.6681 16.1563 14.8268 15.8544 14.9403 15.2839C15.0575 14.6959 15.1108 13.9144 15.1858 12.7912L15.569 7.04195C15.5919 6.69753 15.8898 6.43695 16.2342 6.4599C16.5786 6.48286 16.8392 6.78068 16.8163 7.1251L16.43 12.9182C16.3588 13.9872 16.3013 14.8506 16.1663 15.5282C16.0259 16.2326 15.7873 16.821 15.2943 17.2822C14.8013 17.7434 14.1983 17.9424 13.4861 18.0356C12.801 18.1252 11.9357 18.1252 10.8643 18.1252H10.132C9.06068 18.1252 8.1953 18.1252 7.51027 18.0356C6.79806 17.9424 6.1951 17.7434 5.70211 17.2822C5.20911 16.821 4.97043 16.2326 4.8301 15.5282C4.69512 14.8506 4.63757 13.9872 4.56633 12.9182L4.18012 7.1251C4.15715 6.78068 4.41774 6.48286 4.76216 6.4599Z" fill="white"/>
</svg>
