<svg width="20" height="20" viewBox="0 0 20 20" fill="none" xmlns="http://www.w3.org/2000/svg">
<path d="M12.5003 18.9582H7.50033C2.97533 18.9582 1.04199 17.0248 1.04199 12.4998V7.49984C1.04199 2.97484 2.97533 1.0415 7.50033 1.0415H11.667C12.0087 1.0415 12.292 1.32484 12.292 1.6665C12.292 2.00817 12.0087 2.2915 11.667 2.2915H7.50033C3.65866 2.2915 2.29199 3.65817 2.29199 7.49984V12.4998C2.29199 16.3415 3.65866 17.7082 7.50033 17.7082H12.5003C16.342 17.7082 17.7087 16.3415 17.7087 12.4998V8.33317C17.7087 7.9915 17.992 7.70817 18.3337 7.70817C18.6753 7.70817 18.9587 7.9915 18.9587 8.33317V12.4998C18.9587 17.0248 17.0253 18.9582 12.5003 18.9582Z" fill="#051E88"/>
<path d="M18.3337 8.95841H15.0003C12.1503 8.95841 11.042 7.85007 11.042 5.00007V1.66674C11.042 1.41674 11.192 1.18341 11.4253 1.09174C11.6587 0.991739 11.9253 1.05007 12.1087 1.22507L18.7753 7.89174C18.9503 8.06674 19.0087 8.34174 18.9087 8.57507C18.8087 8.8084 18.5837 8.95841 18.3337 8.95841ZM12.292 3.17507V5.00007C12.292 7.15007 12.8503 7.70841 15.0003 7.70841H16.8253L12.292 3.17507Z" fill="#051E88"/>
<path d="M10.833 11.4585H5.83301C5.49134 11.4585 5.20801 11.1752 5.20801 10.8335C5.20801 10.4918 5.49134 10.2085 5.83301 10.2085H10.833C11.1747 10.2085 11.458 10.4918 11.458 10.8335C11.458 11.1752 11.1747 11.4585 10.833 11.4585Z" fill="#051E88"/>
<path d="M9.16634 14.7915H5.83301C5.49134 14.7915 5.20801 14.5082 5.20801 14.1665C5.20801 13.8248 5.49134 13.5415 5.83301 13.5415H9.16634C9.50801 13.5415 9.79134 13.8248 9.79134 14.1665C9.79134 14.5082 9.50801 14.7915 9.16634 14.7915Z" fill="#051E88"/>
</svg>
