<svg width="24" height="24" viewBox="0 0 24 24" fill="none" xmlns="http://www.w3.org/2000/svg">
<path d="M4.16397 16.3491C3.97197 16.3491 3.78034 16.2759 3.63372 16.1293C3.34084 15.8364 3.34084 15.3617 3.63372 15.0688L15.354 3.34856C15.6465 3.05569 16.1216 3.05569 16.4145 3.34856C16.7073 3.64144 16.7073 4.11619 16.4145 4.40906L4.69422 16.1293C4.54797 16.2756 4.35597 16.3491 4.16397 16.3491Z" fill="#333333"/>
<path d="M3.00661 21.7499C2.95448 21.7499 2.90161 21.7443 2.84873 21.733C2.44373 21.646 2.18573 21.2474 2.27273 20.8424L3.43148 15.4413C3.51848 15.0363 3.91898 14.779 4.32211 14.8653C4.72711 14.9523 4.98511 15.3509 4.89811 15.7559L3.73936 21.157C3.66398 21.5092 3.35273 21.7499 3.00661 21.7499Z" fill="#333333"/>
<path d="M8.40616 20.5914C8.21416 20.5914 8.02253 20.5182 7.87591 20.3716C7.58303 20.0787 7.58303 19.604 7.87591 19.3111L19.5962 7.59124C19.8887 7.29836 20.3638 7.29836 20.6567 7.59124C20.9495 7.88411 20.9495 8.35886 20.6567 8.65174L8.93678 20.3716C8.79016 20.5182 8.59816 20.5914 8.40616 20.5914Z" fill="#333333"/>
<path d="M3.00537 21.7501C2.65925 21.7501 2.34837 21.5093 2.27262 21.1572C2.186 20.7522 2.44362 20.3536 2.84862 20.2666L8.24975 19.1078C8.65512 19.022 9.05375 19.2792 9.14037 19.6838C9.227 20.0888 8.96937 20.4875 8.56437 20.5745L3.16325 21.7332C3.11037 21.7448 3.0575 21.7501 3.00537 21.7501Z" fill="#333333"/>
<path d="M18.006 10.9923C17.814 10.9923 17.622 10.9192 17.4757 10.7725L13.2333 6.53016C12.9405 6.23728 12.9405 5.76253 13.2333 5.46966C13.5258 5.17678 14.0013 5.17678 14.2938 5.46966L18.5362 9.71203C18.8291 10.0049 18.8291 10.4797 18.5362 10.7725C18.39 10.9192 18.198 10.9923 18.006 10.9923Z" fill="#333333"/>
<path d="M20.1278 8.87147C19.9358 8.87147 19.7438 8.79834 19.5972 8.65172C19.3043 8.35884 19.3043 7.88409 19.5972 7.59084C20.0145 7.17347 20.2444 6.60834 20.2444 6.00009C20.2444 5.39184 20.0145 4.82672 19.5972 4.40934C19.1794 3.99159 18.6143 3.76172 18.006 3.76172C17.3978 3.76172 16.8327 3.99159 16.4153 4.40934C16.1228 4.70222 15.648 4.70259 15.3544 4.40934C15.0615 4.11647 15.0615 3.64172 15.3544 3.34847C16.0549 2.64759 16.9965 2.26172 18.006 2.26172C19.0152 2.26172 19.9572 2.64759 20.6577 3.34847C21.3585 4.04897 21.7444 4.99059 21.7444 6.00009C21.7444 7.00959 21.3585 7.95122 20.6577 8.65172C20.5118 8.79797 20.3198 8.87147 20.1278 8.87147Z" fill="#333333"/>
</svg>
