<svg width="21" height="20" viewBox="0 0 21 20" fill="none" xmlns="http://www.w3.org/2000/svg">
<path d="M3.96965 13.6242C3.80965 13.6242 3.64996 13.5633 3.52777 13.4411C3.28371 13.197 3.28371 12.8014 3.52777 12.5573L13.2946 2.79047C13.5384 2.54641 13.9343 2.54641 14.1784 2.79047C14.4225 3.03453 14.4225 3.43016 14.1784 3.67422L4.41152 13.4411C4.28965 13.563 4.12965 13.6242 3.96965 13.6242Z" fill="white"/>
<path d="M3.00551 18.1251C2.96207 18.1251 2.91801 18.1204 2.87394 18.111C2.53644 18.0385 2.32144 17.7063 2.39394 17.3688L3.35957 12.8679C3.43207 12.5304 3.76582 12.316 4.10176 12.3879C4.43926 12.4604 4.65426 12.7926 4.58176 13.1301L3.61613 17.631C3.55332 17.9245 3.29394 18.1251 3.00551 18.1251Z" fill="white"/>
<path d="M7.5048 17.1596C7.3448 17.1596 7.18512 17.0986 7.06293 16.9764C6.81887 16.7324 6.81887 16.3367 7.06293 16.0927L16.8298 6.32611C17.0736 6.08205 17.4695 6.08205 17.7136 6.32611C17.9576 6.57018 17.9576 6.9658 17.7136 7.20986L7.94699 16.9764C7.8248 17.0986 7.6648 17.1596 7.5048 17.1596Z" fill="white"/>
<path d="M3.00448 18.1248C2.71604 18.1248 2.45698 17.9242 2.39385 17.6308C2.32166 17.2933 2.53635 16.9611 2.87385 16.8886L7.37479 15.923C7.7126 15.8514 8.04479 16.0658 8.11698 16.403C8.18916 16.7405 7.97448 17.0726 7.63698 17.1451L3.13604 18.1108C3.09198 18.1205 3.04791 18.1248 3.00448 18.1248Z" fill="white"/>
<path d="M15.505 9.16023C15.345 9.16023 15.185 9.0993 15.0631 8.97711L11.5278 5.4418C11.2837 5.19773 11.2837 4.80211 11.5278 4.55805C11.7715 4.31398 12.1678 4.31398 12.4115 4.55805L15.9468 8.09336C16.1909 8.33742 16.1909 8.73305 15.9468 8.97711C15.825 9.0993 15.665 9.16023 15.505 9.16023Z" fill="white"/>
<path d="M17.2732 7.39289C17.1132 7.39289 16.9532 7.33195 16.831 7.20977C16.5869 6.9657 16.5869 6.57008 16.831 6.3257C17.1788 5.97789 17.3704 5.50695 17.3704 5.00008C17.3704 4.4932 17.1788 4.02227 16.831 3.67445C16.4829 3.32633 16.0119 3.13477 15.505 3.13477C14.9982 3.13477 14.5272 3.32633 14.1794 3.67445C13.9357 3.91852 13.54 3.91883 13.2954 3.67445C13.0513 3.43039 13.0513 3.03477 13.2954 2.79039C13.8791 2.20633 14.6638 1.88477 15.505 1.88477C16.346 1.88477 17.131 2.20633 17.7147 2.79039C18.2988 3.37414 18.6204 4.15883 18.6204 5.00008C18.6204 5.84133 18.2988 6.62602 17.7147 7.20977C17.5932 7.33164 17.4332 7.39289 17.2732 7.39289Z" fill="white"/>
</svg>
