<svg width="108" height="40" viewBox="0 0 108 40" fill="none" xmlns="http://www.w3.org/2000/svg">
<path d="M0 8C0 3.58172 3.58172 0 8 0H54V40H8C3.58172 40 0 36.4183 0 32V8Z" fill="#F7F9FB"/>
<g clip-path="url(#clip0_1396_17902)">
<mask id="mask0_1396_17902" style="mask-type:luminance" maskUnits="userSpaceOnUse" x="15" y="8" width="24" height="24">
<path d="M15 8H39V32H15V8Z" fill="white"/>
</mask>
<g mask="url(#mask0_1396_17902)">
<path d="M30 15.52H24V9.52002H30V15.52ZM25 14.48H29V10.48H25V14.48Z" fill="#333333"/>
<path d="M30 30.52H24V24.52H30V30.52ZM25 29.48H29V25.48H25V29.48Z" fill="#333333"/>
<path d="M26.4805 15H27.4805V25H26.4805V15Z" fill="#333333"/>
<path d="M36.5205 25H35.5205V22.48C35.5205 21.96 35.3205 21.44 34.9205 21.08C34.5605 20.72 34.0405 20.48 33.5205 20.48H20.5205C20.0005 20.48 19.4805 20.68 19.1205 21.08C18.7605 21.44 18.5205 21.96 18.5205 22.48V25H17.4805V22.48C17.4805 21.68 17.8005 20.92 18.3605 20.36C18.9205 19.8 19.6805 19.48 20.4805 19.48H33.4805C34.2805 19.48 35.0405 19.8 35.6005 20.36C36.1605 20.92 36.4805 21.68 36.4805 22.48V25H36.5205Z" fill="#333333"/>
<path d="M21 30.52H15V24.52H21V30.52ZM16 29.48H20V25.48H16V29.48Z" fill="#333333"/>
<path d="M39 30.52H33V24.52H39V30.52ZM34 29.48H38V25.48H34V29.48Z" fill="#333333"/>
</g>
</g>
<path d="M108 8C108 3.58172 104.418 0 100 0H54V40H100C104.418 40 108 36.4183 108 32V8Z" fill="#F7F9FB"/>
<path d="M108 0H54H108ZM54 40H108H54ZM108 40V0V40ZM53.5 0V40H54.5V0H53.5Z" fill="#E1DEDE"/>
<path d="M91.8029 28.7144H75.7542C75.0927 28.7144 74.5566 28.1783 74.5566 27.5169C74.5566 26.8554 75.0927 26.3193 75.7542 26.3193H91.8025C92.4639 26.3193 93 26.8554 93 27.5169C93 28.1783 92.4643 28.7144 91.8029 28.7144Z" fill="#333333"/>
<path d="M91.8029 21.1973H75.7542C75.0927 21.1973 74.5566 20.6612 74.5566 19.9998C74.5566 19.3383 75.0927 18.8022 75.7542 18.8022H91.8025C92.4639 18.8022 93 19.3383 93 19.9998C93.0004 20.6612 92.4643 21.1973 91.8029 21.1973Z" fill="#333333"/>
<path d="M91.8029 13.6807H75.7542C75.0927 13.6807 74.5566 13.1446 74.5566 12.4832C74.5566 11.8217 75.0927 11.2856 75.7542 11.2856H91.8025C92.4639 11.2856 93 11.8217 93 12.4832C93 13.1446 92.4643 13.6807 91.8029 13.6807Z" fill="#333333"/>
<path d="M70.6083 14.1839C71.4965 14.1839 72.2166 13.4638 72.2166 12.5756C72.2166 11.6873 71.4965 10.9673 70.6083 10.9673C69.7201 10.9673 69 11.6873 69 12.5756C69 13.4638 69.7201 14.1839 70.6083 14.1839Z" fill="#333333"/>
<path d="M70.6083 21.6082C71.4965 21.6082 72.2166 20.8881 72.2166 19.9999C72.2166 19.1117 71.4965 18.3916 70.6083 18.3916C69.7201 18.3916 69 19.1117 69 19.9999C69 20.8881 69.7201 21.6082 70.6083 21.6082Z" fill="#333333"/>
<path d="M70.6083 29.0325C71.4965 29.0325 72.2166 28.3125 72.2166 27.4242C72.2166 26.536 71.4965 25.8159 70.6083 25.8159C69.7201 25.8159 69 26.536 69 27.4242C69 28.3125 69.7201 29.0325 70.6083 29.0325Z" fill="#333333"/>
<defs>
<clipPath id="clip0_1396_17902">
<rect width="24" height="24" fill="white" transform="translate(15 8)"/>
</clipPath>
</defs>
</svg>
