<svg width="52" height="52" viewBox="0 0 52 52" fill="none" xmlns="http://www.w3.org/2000/svg">
<path d="M26 49.8334C39.1417 49.8334 49.8334 39.1417 49.8334 26C49.8334 12.8583 39.1417 2.16667 26 2.16667C12.8583 2.16667 2.16667 12.8583 2.16667 26C2.16667 39.1417 12.8583 49.8334 26 49.8334ZM26 4.12164C38.0638 4.12164 47.8784 13.9363 47.8784 26C47.8784 38.0638 38.0638 47.8784 26 47.8784C13.9363 47.8784 4.12164 38.0638 4.12164 26C4.12164 13.9363 13.9363 4.12164 26 4.12164ZM28.5617 31.219C31.293 31.219 33.2006 29.0728 33.2006 26C33.2006 25.4601 32.7629 25.0225 32.2231 25.0225H29.6854C29.1456 25.0225 28.7079 25.4601 28.7079 26C28.7079 26.54 29.1456 26.9775 29.6854 26.9775H31.1442C30.888 28.1752 30.1206 29.264 28.5616 29.264C26.7618 29.264 25.2977 27.7999 25.2977 26C25.2977 24.2001 26.7618 22.736 28.5616 22.736C29.2157 22.736 29.8464 22.9286 30.3858 23.2929C30.8331 23.5949 31.4408 23.4774 31.7429 23.03C32.0452 22.5827 31.9275 21.9751 31.4801 21.6729C30.6164 21.0893 29.6071 20.7809 28.5614 20.7809C25.6837 20.7809 23.3426 23.1222 23.3426 25.9999C23.3426 28.8776 25.684 31.219 28.5617 31.219ZM39.4341 31.219C42.3118 31.219 44.6529 28.8777 44.6529 26C44.6529 23.1223 42.3118 20.781 39.4341 20.781C36.5564 20.781 34.2151 23.1223 34.2151 26C34.2151 28.8777 36.5564 31.219 39.4341 31.219ZM39.4341 22.736C41.2338 22.736 42.698 24.2001 42.698 26C42.698 27.7999 41.2338 29.264 39.4341 29.264C37.6343 29.264 36.1701 27.7999 36.1701 26C36.1701 24.2001 37.6343 22.736 39.4341 22.736ZM17.1093 31.219C19.987 31.219 22.3282 28.8777 22.3282 26C22.3282 23.1223 19.987 20.781 17.1093 20.781C14.2316 20.781 11.8903 23.1223 11.8903 26C11.8903 28.8777 14.2316 31.219 17.1093 31.219ZM17.1093 22.736C18.9091 22.736 20.3732 24.2001 20.3732 26C20.3732 27.7999 18.9091 29.264 17.1093 29.264C15.3096 29.264 13.8453 27.7999 13.8453 26C13.8453 24.2001 15.3096 22.736 17.1093 22.736ZM8.1584 31.1975C8.22852 31.2096 8.28534 31.2194 9.22477 31.2194C9.67794 31.2194 10.3364 31.2171 11.3004 31.2117C11.8403 31.2087 12.2754 30.7686 12.2724 30.2288C12.2695 29.6907 11.8324 29.2567 11.2951 29.2567H11.2895C10.6019 29.2605 9.86366 29.2634 9.30193 29.2639V21.7585C9.30193 21.2185 8.86428 20.781 8.32444 20.781C7.78461 20.781 7.34696 21.2185 7.34696 21.7585V30.2342C7.34709 30.7101 7.6896 31.1167 8.1584 31.1975Z" fill="white"/>
</svg>
