<svg width="24" height="24" viewBox="0 0 24 24" fill="none" xmlns="http://www.w3.org/2000/svg">
<path d="M16.1018 17.3127V18.8752C16.1018 20.5984 14.6999 22.0002 12.9766 22.0002H5.12474C3.40149 22.0002 1.9996 20.5984 1.9996 18.8752V5.12524C1.9996 3.40207 3.40149 2.00024 5.12474 2.00024H12.9766C14.6999 2.00024 16.1018 3.40207 16.1018 5.12524V6.68774C16.1018 7.11926 15.752 7.46899 15.3205 7.46899C14.889 7.46899 14.5392 7.11926 14.5392 6.68774V5.12524C14.5392 4.26373 13.8382 3.56274 12.9766 3.56274H5.12474C4.26319 3.56274 3.56217 4.26373 3.56217 5.12524V18.8752C3.56217 19.7368 4.26319 20.4377 5.12474 20.4377H12.9766C13.8382 20.4377 14.5392 19.7368 14.5392 18.8752V17.3127C14.5392 16.8812 14.889 16.5315 15.3205 16.5315C15.752 16.5315 16.1018 16.8812 16.1018 17.3127ZM21.4284 10.6582L19.6789 8.90881C19.3737 8.60364 18.879 8.60364 18.574 8.90881C18.2688 9.21384 18.2688 9.70853 18.574 10.0135L19.8184 11.2581H10.4375C10.0059 11.2581 9.65619 11.6078 9.65619 12.0393C9.65619 12.4708 10.0059 12.8206 10.4375 12.8206H19.8184L18.574 14.0651C18.2688 14.3701 18.2688 14.8648 18.574 15.1698C18.7266 15.3224 18.9265 15.3987 19.1264 15.3987C19.3264 15.3987 19.5263 15.3224 19.6789 15.1698L21.4284 13.4204C22.19 12.6588 22.19 11.4198 21.4284 10.6582Z" fill="#333333"/>
</svg>
