<svg width="24" height="24" viewBox="0 0 24 24" fill="none" xmlns="http://www.w3.org/2000/svg">
<path d="M19.0699 12.4749H17.1122C16.8457 12.4749 16.5878 12.5113 16.3423 12.5782C15.858 11.6262 14.8692 10.9721 13.7299 10.9721H10.2693C9.12999 10.9721 8.14124 11.6262 7.65695 12.5782C7.41144 12.5113 7.15347 12.4749 6.88702 12.4749H4.92929C3.31386 12.4749 1.9996 13.7891 1.9996 15.4046V18.5342C1.9996 19.5034 2.78816 20.292 3.75741 20.292H20.2418C21.211 20.292 21.9996 19.5034 21.9996 18.5342V15.4046C21.9996 13.7891 20.6853 12.4749 19.0699 12.4749ZM7.33964 13.9018V19.1202H3.75741C3.43433 19.1202 3.17148 18.8573 3.17148 18.5342V15.4046C3.17148 14.4354 3.96003 13.6468 4.92929 13.6468H6.88702C7.04609 13.6468 7.20011 13.6684 7.34675 13.7082C7.34253 13.7723 7.33964 13.8368 7.33964 13.9018ZM15.4877 19.1202H8.51152V13.9018C8.51152 12.9325 9.30007 12.144 10.2693 12.144H13.7299C14.6991 12.144 15.4877 12.9325 15.4877 13.9018V19.1202ZM20.8277 18.5342C20.8277 18.8573 20.5649 19.1202 20.2418 19.1202H16.6596V13.9018C16.6596 13.8367 16.6567 13.7722 16.6525 13.7082C16.7991 13.6684 16.9531 13.6468 17.1122 13.6468H19.0699C20.0392 13.6468 20.8277 14.4353 20.8277 15.4046V18.5342Z" fill="white"/>
<path d="M5.9082 6.94177C4.47269 6.94177 3.30484 8.10962 3.30484 9.54513C3.3048 10.9806 4.47269 12.1485 5.9082 12.1485C7.34367 12.1485 8.51156 10.9806 8.51156 9.54513C8.51156 8.10962 7.34371 6.94177 5.9082 6.94177ZM5.90816 10.9766C5.11882 10.9766 4.47668 10.3345 4.47668 9.54513C4.47668 8.7558 5.11882 8.11365 5.90816 8.11365C6.6975 8.11365 7.33964 8.7558 7.33964 9.54513C7.33964 10.3345 6.6975 10.9766 5.90816 10.9766Z" fill="white"/>
<path d="M11.9996 3.70837C10.0818 3.70837 8.52156 5.26861 8.52156 7.18642C8.52156 9.10423 10.0818 10.6645 11.9996 10.6645C13.9174 10.6645 15.4777 9.10423 15.4777 7.18642C15.4777 5.26865 13.9174 3.70837 11.9996 3.70837ZM11.9996 9.49259C10.728 9.49259 9.69344 8.45806 9.69344 7.18642C9.69344 5.91482 10.728 4.88025 11.9996 4.88025C13.2713 4.88025 14.3058 5.91478 14.3058 7.18642C14.3058 8.45806 13.2713 9.49259 11.9996 9.49259Z" fill="white"/>
<path d="M18.091 6.94177C16.6555 6.94177 15.4877 8.10962 15.4877 9.54513C15.4877 10.9806 16.6555 12.1485 18.091 12.1485C19.5265 12.1485 20.6944 10.9806 20.6944 9.54513C20.6944 8.10962 19.5265 6.94177 18.091 6.94177ZM18.091 10.9766C17.3017 10.9766 16.6595 10.3345 16.6595 9.54513C16.6596 8.7558 17.3017 8.11365 18.091 8.11365C18.8804 8.11365 19.5225 8.7558 19.5225 9.54513C19.5225 10.3345 18.8804 10.9766 18.091 10.9766Z" fill="white"/>
</svg>
