<svg width="24" height="24" viewBox="0 0 24 24" fill="none" xmlns="http://www.w3.org/2000/svg">
<path d="M15.5672 21.0002H8.432C7.49404 21.0002 6.39262 20.3697 5.92429 19.5642L2.35669 13.4366C1.88057 12.6182 1.88057 11.3829 2.35669 10.5639L5.92494 4.43625C6.39327 3.63073 7.49469 3.00021 8.43264 3.00021H15.5672C16.5052 3.00021 17.6066 3.63073 18.0749 4.43625L21.6425 10.5639C22.1186 11.3822 22.1186 12.6175 21.6425 13.4366L18.0743 19.5642C17.6066 20.3697 16.5045 21.0002 15.5672 21.0002ZM8.432 4.28634C7.94875 4.28634 7.28906 4.66401 7.04776 5.07899L3.47951 11.2066C3.23821 11.6216 3.23821 12.3776 3.47951 12.7925L7.04712 18.9201C7.28906 19.3358 7.94875 19.7128 8.43135 19.7128H15.5672C16.0505 19.7128 16.7101 19.3351 16.9514 18.9201L20.5197 12.7925C20.761 12.3776 20.761 11.6216 20.5197 11.2066L16.9521 5.07899C16.7101 4.66337 16.0505 4.28634 15.5679 4.28634H8.432ZM11.9996 15.8062C9.88304 15.8062 8.16151 14.0986 8.16151 11.9999C8.16151 9.90117 9.88304 8.19362 11.9996 8.19362C14.1162 8.19362 15.8377 9.90117 15.8377 11.9999C15.8377 14.0986 14.1162 15.8062 11.9996 15.8062ZM11.9996 9.48039C10.5985 9.48039 9.45882 10.6108 9.45882 11.9999C9.45882 13.389 10.5985 14.5194 11.9996 14.5194C13.4007 14.5194 14.5404 13.389 14.5404 11.9999C14.5404 10.6108 13.4007 9.48039 11.9996 9.48039Z" fill="#333333"/>
</svg>
