<svg width="25" height="25" viewBox="0 0 25 25" fill="none" xmlns="http://www.w3.org/2000/svg">
<path d="M9.49982 18.2502C9.08982 18.2502 8.74982 17.9102 8.74982 17.5002V13.3102L8.02982 14.0302C7.73982 14.3202 7.25982 14.3202 6.96982 14.0302C6.67982 13.7402 6.67982 13.2602 6.96982 12.9702L8.96982 10.9702C9.17982 10.7602 9.50982 10.6902 9.78982 10.8102C10.0698 10.9202 10.2498 11.2002 10.2498 11.5002V17.5002C10.2498 17.9102 9.90982 18.2502 9.49982 18.2502Z" fill="#051E88"/>
<path d="M11.4998 14.2502C11.3098 14.2502 11.1198 14.1802 10.9698 14.0302L8.96982 12.0302C8.67982 11.7402 8.67982 11.2602 8.96982 10.9702C9.25982 10.6802 9.73982 10.6802 10.0298 10.9702L12.0298 12.9702C12.3198 13.2602 12.3198 13.7402 12.0298 14.0302C11.8798 14.1802 11.6898 14.2502 11.4998 14.2502Z" fill="#051E88"/>
<path d="M15.4999 23.2502H9.49988C4.06988 23.2502 1.74988 20.9302 1.74988 15.5002V9.50021C1.74988 4.07021 4.06988 1.75021 9.49988 1.75021H14.4999C14.9099 1.75021 15.2499 2.09021 15.2499 2.50021C15.2499 2.91021 14.9099 3.25021 14.4999 3.25021H9.49988C4.88988 3.25021 3.24988 4.89021 3.24988 9.50021V15.5002C3.24988 20.1102 4.88988 21.7502 9.49988 21.7502H15.4999C20.1099 21.7502 21.7499 20.1102 21.7499 15.5002V10.5002C21.7499 10.0902 22.0899 9.75021 22.4999 9.75021C22.9099 9.75021 23.2499 10.0902 23.2499 10.5002V15.5002C23.2499 20.9302 20.9299 23.2502 15.4999 23.2502Z" fill="#051E88"/>
<path d="M22.4999 11.2502H18.4999C15.0799 11.2502 13.7499 9.92022 13.7499 6.50022V2.50022C13.7499 2.20022 13.9299 1.92022 14.2099 1.81022C14.4899 1.69022 14.8099 1.76022 15.0299 1.97022L23.0299 9.97022C23.2399 10.1802 23.3099 10.5102 23.1899 10.7902C23.0699 11.0702 22.7999 11.2502 22.4999 11.2502ZM15.2499 4.31022V6.50022C15.2499 9.08022 15.9199 9.75022 18.4999 9.75022H20.6899L15.2499 4.31022Z" fill="#051E88"/>
</svg>
